<mxfile host="app.diagrams.net" modified="2023-09-05T10:58:31.021Z" agent="Mozilla/5.0 (Macintosh; Intel Mac OS X 10_15_7) AppleWebKit/537.36 (KHTML, like Gecko) Chrome/116.0.0.0 Safari/537.36" etag="DoAq3wPHOc-uf4b5LBEv" version="21.7.1" type="github">
  <diagram name="第 1 页" id="cQEL0Izx7vrAMa5zQ9rl">
    <mxGraphModel dx="954" dy="642" grid="1" gridSize="10" guides="1" tooltips="1" connect="1" arrows="1" fold="1" page="1" pageScale="1" pageWidth="827" pageHeight="1169" math="0" shadow="0">
      <root>
        <mxCell id="0" />
        <mxCell id="1" parent="0" />
        <mxCell id="CK03P8LkHSG50c27h__I-2" value="" style="edgeStyle=orthogonalEdgeStyle;rounded=0;orthogonalLoop=1;jettySize=auto;html=1;" edge="1" parent="1" source="YM1d6O6bsoZAi_-GL5vC-1" target="CK03P8LkHSG50c27h__I-1">
          <mxGeometry relative="1" as="geometry" />
        </mxCell>
        <mxCell id="CK03P8LkHSG50c27h__I-6" style="edgeStyle=orthogonalEdgeStyle;rounded=0;orthogonalLoop=1;jettySize=auto;html=1;entryX=0.5;entryY=0;entryDx=0;entryDy=0;exitX=0.5;exitY=0;exitDx=0;exitDy=0;" edge="1" parent="1" source="YM1d6O6bsoZAi_-GL5vC-1" target="CK03P8LkHSG50c27h__I-3">
          <mxGeometry relative="1" as="geometry">
            <Array as="points">
              <mxPoint x="220" y="220" />
              <mxPoint x="580" y="220" />
            </Array>
          </mxGeometry>
        </mxCell>
        <mxCell id="YM1d6O6bsoZAi_-GL5vC-1" value="正常" style="rounded=0;whiteSpace=wrap;html=1;direction=west;" parent="1" vertex="1">
          <mxGeometry x="160" y="110" width="120" height="60" as="geometry" />
        </mxCell>
        <mxCell id="CK03P8LkHSG50c27h__I-4" value="" style="edgeStyle=orthogonalEdgeStyle;rounded=0;orthogonalLoop=1;jettySize=auto;html=1;" edge="1" parent="1" source="CK03P8LkHSG50c27h__I-1" target="CK03P8LkHSG50c27h__I-3">
          <mxGeometry relative="1" as="geometry" />
        </mxCell>
        <mxCell id="CK03P8LkHSG50c27h__I-8" style="edgeStyle=orthogonalEdgeStyle;rounded=0;orthogonalLoop=1;jettySize=auto;html=1;" edge="1" parent="1" source="CK03P8LkHSG50c27h__I-1" target="YM1d6O6bsoZAi_-GL5vC-1">
          <mxGeometry relative="1" as="geometry" />
        </mxCell>
        <mxCell id="CK03P8LkHSG50c27h__I-1" value="归档" style="rounded=0;whiteSpace=wrap;html=1;direction=west;" vertex="1" parent="1">
          <mxGeometry x="340" y="110" width="120" height="60" as="geometry" />
        </mxCell>
        <mxCell id="CK03P8LkHSG50c27h__I-3" value="删除" style="rounded=0;whiteSpace=wrap;html=1;direction=west;" vertex="1" parent="1">
          <mxGeometry x="520" y="110" width="120" height="60" as="geometry" />
        </mxCell>
      </root>
    </mxGraphModel>
  </diagram>
</mxfile>
